<?xml version="1.0" encoding="UTF-8"?>
<svg id="Layer_1" data-name="Layer 1" xmlns="http://www.w3.org/2000/svg" viewBox="0 0 685.6 249.09">
  <defs>
    <style>
      .cls-1 {
        fill: #a16e6b;
      }
    </style>
  </defs>
  <g>
    <path class="cls-1" d="M684.2,118.32c-1.74-.93-10.34-.2-11.15,.93-.33,.43-.96,1.97-1.46,3.46-1.39,4.19-9.91,21.03-12.31,24.31-3.68,5.04-6.96,8.45-9.46,9.76-1.31,.71-2.55,1.13-2.75,.93-.91-.91,4.99-14.25,9.13-20.63,1.61-2.5,6-12.13,6.38-14,.66-3.23-.53-4.06-5.8-4.06-4.14,0-4.69,.15-5.95,1.77-.76,.96-1.39,2.12-1.39,2.57s-2.3,4.99-5.12,10.11c-2.8,5.12-6.18,11.35-7.49,13.85-4.04,7.67-12.51,14.48-13.67,11.02-.76-2.22,2.77-10.77,9.84-23.78,1.87-3.43,4.16-7.64,5.09-9.38,1.99-3.68,3.43-6.15,4.16-7.14,.3-.38,.93-1.26,1.41-1.97,.63-.91,2.02-1.36,5.17-1.66,4.21-.4,4.29-.45,4.49-2.52,.15-1.69-.18-2.37-1.79-3.51-2.07-1.49-2.19-3.3-.38-5.42,1.56-1.84,6.99-12.74,6.99-14.05,0-2.77-1.89-3.58-7.57-3.18-2.93,.2-5.6,.63-5.93,.98-.35,.35-1.36,2.77-2.27,5.37-1.97,5.67-6.56,13.82-8.55,15.21-.78,.55-2.5,1.01-3.78,1.01-3.51,.03-5.3,.66-5.75,2.07-.63,2.07,.28,3.78,2.4,4.54,2.52,.88,2.62,2.82,.28,5.88-.93,1.24-2.14,3.23-2.7,4.41-.53,1.21-1.54,3.08-2.19,4.19-3.08,5.14-4.84,8.17-5.62,9.71-4.41,8.85-13.16,19.72-14.65,18.23-.66-.66,1.59-8.42,2.88-9.99,.78-.91,6.2-11.32,11.37-21.79,.83-1.69,.71-4.26-.25-5.04-.5-.4-2.82-.53-5.65-.33l-4.82,.35-2.04,3.3c-1.13,1.82-2.04,3.58-2.04,3.93s-.3,1.16-.63,1.79c-.35,.66-1.51,2.98-2.57,5.2-6.25,12.94-15.11,24.89-18.01,24.29-2.02-.4-1.24-2.8,3.96-11.85,9.76-16.97,12.18-23.3,9.68-25.37-1.31-1.08-9.51-1.24-10.77-.2-.53,.43-1.16,1.92-1.41,3.28-.25,1.36-1.89,5.2-3.63,8.5-4.31,8.17-4.79,9-6.96,11.85-1.01,1.36-2.95,4.06-4.29,6.03-7.01,10.16-11.63,11.58-7.19,2.19,.93-1.99,1.97-3.78,2.24-3.96,.3-.18,3.51-6.2,7.11-13.37,5.52-11.02,6.41-13.21,5.7-14.1-1.16-1.36-7.21-1.36-10.67,.03-1.99,.81-2.98,.88-4.01,.33-2.04-1.08-7.67-.86-10.57,.45-6.88,3.13-15.96,10.62-19.44,16.06-.66,1.01-1.59,2.27-2.07,2.77-.48,.5-1.87,2.45-3.1,4.34-5.6,8.68-17.86,18.26-21.13,16.52-2.5-1.36-2.35-8.1,.3-11.85,.61-.83,2.93-2.07,5.55-2.93,7.39-2.45,12.18-5.2,16.39-9.46,7.19-7.24,7.92-13.42,1.94-16.59-3.96-2.09-16.82,2.85-23.18,8.88-.76,.71-2.02,1.74-2.85,2.29-1.87,1.24-7.01,8.9-9.63,14.32-1.89,3.88-4.03,12.05-3.58,13.57,.1,.4,.4,1.59,.63,2.62,.55,2.6,4.62,6.36,7.44,6.88,6.96,1.29,11.6-.61,19.67-8.02l4.34-3.98,.91,3.63c1.01,4.01,3.45,7.69,5.85,8.78,2.24,1.03,7.84-1.16,11.63-4.54,4.87-4.34,6.73-4.99,6.78-2.35,0,.58,.83,2.07,1.84,3.28,3.1,3.73,7.36,2.72,14.83-3.53,3.1-2.6,3.71-2.57,4.34,.03,.25,.96,1.26,2.45,2.27,3.33,3.63,3.2,9.56,1.54,15.18-4.29,1.82-1.89,3.51-3.2,3.76-2.93,.25,.25,.81,1.59,1.24,2.93,.86,2.7,3.88,4.64,7.39,4.74,1.84,.05,6.76-2.62,10.09-5.52,1.89-1.66,1.77-1.69,2.9,.53,.53,1.03,1.79,2.7,2.82,3.71,1.74,1.74,2.12,1.84,5.57,1.41,3.71-.45,7.79-2.09,9.53-3.81,1.79-1.79,4.26-3.1,4.99-2.62,.4,.25,.96,1.13,1.21,1.94,.53,1.74,3.3,3.83,5.83,4.44,.96,.23,3.23-.03,5.02-.55,1.79-.55,3.53-1.01,3.83-1.01,2.35-.03-5.88,13.11-11.95,19.12-4.29,4.24-7.54,6.15-11.4,6.78-3.28,.53-4.26-.55-4.16-4.64,.05-2.93-.2-3.61-1.77-4.97-2.22-1.89-3.46-1.97-6.23-.25-2.77,1.69-3.88,5.3-2.6,8.4,1.16,2.77,4.77,5.5,7.74,5.85v.03c1.29,.15,2.95,.3,3.68,.35,2.29,.15,10.95-1.13,12.21-1.82,4.01-2.12,6.81-3.28,7.14-2.93,.23,.23,.4,.08,.4-.35s.88-1.21,1.94-1.77c2.35-1.21,12.13-10.57,12.13-11.6,0-.4,.38-1.13,.86-1.61,1.01-1.03,7.84-12.86,7.84-13.59,0-.25,1.72-3.38,3.83-6.94,2.09-3.56,4.89-8.57,6.23-11.15,2.22-4.34,3.86-7.31,9.28-17.07,2.5-4.49,2.77-8.3,.68-9.41Zm-164.05,10.06c2.45,0-1.03,5.95-5.8,9.94-3.15,2.65-4.82,3.43-4.82,2.27,0-1.84,9-12.21,10.62-12.21Zm32.51,13.44c-.53,.43-.96,1.13-.96,1.56,0,1.84-6.96,11.9-10.42,15.06-2.65,2.42-4.31,3.43-5.62,3.43-4.64,0-3.25-5.78,4.59-19.09,3.56-6.05,10.21-13.87,13.16-15.46,2.24-1.21,2.32-1.21,3.63,.08,1.21,1.24,1.26,1.56,.4,4.34-1.21,4.04-3.63,9.13-4.79,10.09Z"/>
    <path class="cls-1" d="M366.11,146.59c-1.06,.15-2.55,1.92-5.09,6.08-4.56,7.44-11.45,14.75-13.64,14.43-1.29-.18-1.51-.58-1.44-2.5,.08-1.54,.63-2.7,1.66-3.48,.86-.66,1.34-1.39,1.08-1.64-.48-.48,2.95-7.11,6.2-12,.98-1.49,2.32-3.73,2.98-5.02,6.23-12.03,6.33-12.31,5.04-14.75-.58-1.08-1.34-1.21-5.83-1.03-4.36,.18-5.32,.43-6.36,1.71-1.03,1.29-1.54,2.95-1.08,3.53,.3,.33-7.19,14.22-8.37,15.54-.66,.76-2.12,3.23-3.25,5.52-1.29,2.62-3.58,5.62-6.3,8.25-4.34,4.16-6.1,4.62-5.3,1.41,.35-1.51,7.01-15.23,9.28-19.17,.43-.76,2.02-3.46,3.51-6.03,1.51-2.6,3.2-5.6,3.76-6.71,2.07-4.14,6.83-12.81,8.47-15.38,.93-1.49,3.03-5.25,4.67-8.37,1.61-3.13,3.2-5.98,3.53-6.33,1.11-1.19,.63-4.29-.78-5.27-1.01-.71-2.02-.81-3.83-.4-1.36,.33-3.58,.61-4.92,.61-2.8,.03-3.58,.78-4.19,4.09-.23,1.31-1.64,4.39-3.1,6.83-1.46,2.42-2.67,4.67-2.67,4.97s-.71,1.59-1.56,2.88c-.88,1.29-3.03,5.04-4.79,8.37-1.74,3.3-3.56,6.46-4.03,7.01-.45,.55-1.46,2.22-2.24,3.68-.78,1.49-1.79,3.28-2.24,4.03-4.84,7.94-6.43,10.37-8.2,12.38-1.11,1.29-2.77,3.53-3.66,5.02-3.08,5.04-8.78,11.7-10.06,11.7-.23,0-.76-.33-1.19-.76-.81-.81,.13-2.82,7.16-15.64,7.49-13.64,10.79-20.65,10.06-21.39-1.06-1.03-9.61-.88-10.92,.2-.91,.76-1.61,.71-4.51-.25-3.33-1.11-3.56-1.08-7.82,.3-7.72,2.52-12.53,6.36-22.65,17.88-2.04,2.32-5.8,10.09-7.06,14.55-.73,2.57-1.56,3.78-3.86,5.52-3.58,2.75-6.58,2.93-13.29,.86-10.64-3.33-10.97-3.68-7.31-8.15,1.26-1.56,3.88-5.93,5.83-9.71,4.39-8.6,7.59-12.36,11.47-13.49,4.99-1.44,15.38-7.44,20.91-12,5.02-4.19,13.49-13.34,14.32-15.51,.2-.53,1.26-2.47,2.32-4.29,1.06-1.79,2.24-4.87,2.62-6.81,.63-3.13,.55-3.86-.76-6.56-1.36-2.8-1.71-3.08-5.07-3.76-4.64-.96-8.1-.4-13.59,2.17-12.51,5.88-23.55,17.68-34.22,36.54-4.36,7.69-6.43,9.1-10.64,7.21-3.56-1.61-5.7-3.73-7.49-7.44-1.29-2.67-1.46-3.83-1.13-7.99,.43-5.72,1.79-8.75,6.15-13.59,2.19-2.45,4.14-3.83,6.71-4.79,3.4-1.26,3.81-1.29,7.11-.3,4.21,1.26,6.61,.53,6.61-2.02,0-2.88-2.75-3.98-8.95-3.56-4.49,.28-6.28,.78-10.29,2.77-6.63,3.33-13.04,9.41-15.91,15.11-2.85,5.67-3.28,8.12-2.32,13.42,1.36,7.64,7.57,13.79,15.06,15.01,5.17,.83,5.7,1.03,5.7,2.24,0,.66-1.06,2.95-2.35,5.09-1.29,2.14-2.35,4.01-2.35,4.19,0,.5-5.35,8.15-5.98,8.55-.33,.2-2.52-.13-4.84-.73-5.57-1.41-16.37-.88-20.7,1.03-3.78,1.69-7.09,4.92-7.67,7.54-.38,1.74-.1,2.4,2.12,4.69,1.44,1.46,3.48,3.08,4.59,3.56,4.82,2.14,16.72,.76,24.44-2.85,3-1.39,6.41-1.39,9.38,0,2.47,1.16,7.57,2.7,9.56,2.9,.66,.05,3.08,.3,5.37,.53,4.92,.5,10.49-.73,14.9-3.3l2.93-1.71,2.6,2.72c2.14,2.27,3.03,2.72,5.14,2.72,2.98,0,7.36-2.32,11.53-6.13,3.33-3.03,4.87-3.3,4.87-.86,0,.93,.76,2.45,1.66,3.33,3.38,3.4,9.81,1.51,16.67-4.87,3.51-3.28,4.41-3.13,4.44,.76,0,3.03,2.7,5.09,6.68,5.09,2.55,0,4.19-.53,7.29-2.35,4.67-2.75,5.78-2.87,6.86-.83,1.54,2.9,3.28,3.86,7.09,3.86,8.7,0,16.44-6.71,24.31-21.03,3.1-5.65,3.46-7.97,1.19-7.64Zm-94.8-36.16c.3-.13,.55-.5,.55-.86,0-1.31,6.58-10.39,9.31-12.86,3.56-3.2,5.52-4.09,7.79-3.51,1.66,.4,1.79,.66,1.49,3.25-.66,5.65-11.5,19.57-21.64,27.77-3.23,2.6-7.01,4.26-7.01,3.1,0-.83,8.9-16.64,9.51-16.9Zm-57.68,59.11c-1.97,1.03-10.09,1.46-10.97,.58-.93-.96-.35-2.8,1.21-3.83,1.89-1.24,5.6-1.39,9.23-.38,3.03,.86,3.23,2.24,.53,3.63Zm69.35-2.45c-2.32,1.74-2.67,1.79-4.06,.4-1.31-1.31-1.31-2.7-.05-6.3,1.69-4.77,10.89-19.34,14.95-23.66,2.4-2.55,6.76-4.77,7.64-3.88,1.54,1.54,.05,7.44-3.35,13.21-6.83,11.58-10.84,16.95-15.13,20.23Z"/>
    <path class="cls-1" d="M498.96,98.27c-3.98-9.08-14.3-15.06-27.26-15.79-6.23-.33-16.97,.83-21.66,2.37-5.88,1.92-11.02,3.96-11.42,4.54-.23,.28-1.21,.88-2.24,1.34-1.01,.45-3.96,2.22-6.56,3.93-10.95,7.21-17.02,14.88-19.37,24.54-1.24,5.04-1.34,6.36-.68,9.48,1.84,8.93,8.22,13.69,16.42,12.23,3.53-.63,11.25-4.34,13.62-6.56,2.09-1.94,1.79-.38-.91,4.84-2.37,4.56-3.51,6.36-7.59,11.95-4.16,5.7-5.14,6.94-6.61,8.32-5.17,4.87-10.04,7.16-15.43,7.24-5.78,.1-6.53-.71-5.07-5.25,.98-3.15,.98-3.56-.08-5.8-1.11-2.35-3.61-3.86-6.43-3.86-1.54,0-5.83,4.19-6.73,6.53-.38,1.01-.5,2.9-.25,4.19,.45,2.55,3.43,7.36,4.54,7.36,.38,0,1.24,.48,1.89,1.08,.66,.61,2.19,1.31,3.4,1.59,3.96,.91,12.13,.55,17.6-.81,2.95-.71,5.65-1.54,6.03-1.84,.38-.28,1.39-.76,2.27-1.01,2.09-.66,8.75-4.59,10.44-6.18,2.19-2.07,3.56-2.32,4.06-.73,.91,2.82,5.65,6.46,10.39,7.97,3.73,1.16,5.7,1.39,10.79,1.13,8.45-.4,14.58-3.18,20-9.03,4.74-5.14,6.28-9.53,5.83-16.59-.25-4.16-.73-5.65-3.18-10.14-1.59-2.9-3.3-5.52-3.81-5.83-1.41-.83-.53-1.61,4.69-4.24,5.42-2.7,11.17-8.12,12.86-12.08,1.79-4.24,2.02-11.4,.45-14.93Zm-23.76,44.94c-.55,7.87-4.92,14.85-11.65,18.66-4.01,2.24-8.8,3.1-11.4,2.02-.81-.33-2.6-1.69-3.98-3-1.39-1.31-3.08-2.55-3.73-2.75-1.64-.53-1.54-1.01,.98-3.83,4.16-4.69,6.51-8.35,11.47-17.93,3.68-7.14,4.04-7.44,7.46-6.56,1.46,.38,3.4,.83,4.31,1.06,2.3,.5,3.91,2.04,5.52,5.17,1.08,2.14,1.29,3.51,1.01,7.16Zm11.98-39.11c-.55,2.93-1.51,5.78-2.88,8.42-.88,1.71-1.92,3.35-3.38,4.59-.78,.68-1.69,1.24-2.52,1.84-1.61,1.13-3.1,2.5-4.99,3.15-1.72,.58-3.61,1.46-5.47,1.39-3.08-.15-3.2-1.59-.48-5.95,1.24-1.94,2.67-4.44,3.23-5.55,1.11-2.22,6.18-7.49,10.64-11.05,2.42-1.94,2.85-2.62,2.47-3.86-.4-1.24-.98-1.49-3.38-1.49-5.55,0-13.77,4.72-21.31,12.21-2.7,2.7-5.12,5.35-5.37,5.88-.63,1.34-7.59,12.16-8.55,13.27-.55,.63-.98,.68-1.49,.15-1.29-1.26-3.56-.78-6.23,1.36-1.44,1.16-3.2,2.32-3.93,2.6-8.07,3.08-13.09-.68-12.26-9.21,.45-4.74,4.79-13.16,8.88-17.22,4.06-4.03,6.86-6.36,7.64-6.36,.33,0,.96-.45,1.41-1.01,1.03-1.24,10.57-5.85,15.08-7.29,5.37-1.71,12.48-2.47,16.49-1.77,1.97,.33,4.62,.76,5.88,.96,3.25,.45,7.29,3.56,9.26,7.09,.25,.45,.5,.93,.71,1.41,.88,1.97,.93,4.34,.55,6.43Z"/>
    <path class="cls-1" d="M360.98,116.78c-1.37-1.66-1.6-4.85-.5-6.98,3.04-5.88,10.16-6.59,11.52-1.16,.56,2.23-.05,3.65-2.78,6.53-1.94,2.05-2.86,2.51-4.94,2.51-1.4,0-2.89-.41-3.3-.9Z"/>
  </g>
  <g>
    <path class="cls-1" d="M141.57,142.25c-.21-4.97-1.04-11.05-1.99-14.36-.89-3.13-2.52-7.35-3.3-8.5-1.12-1.67-1.04-3.06,.38-6.5,1.29-3.11,2.41-8.26,2.78-12.68,.81-9.57-.56-19.18-4.11-29.06-.48-1.34-3.94-8.29-4.81-9.68-1.03-1.66-3.47-5.32-4.47-6.75-1.25-1.76-7.56-8.11-9.53-9.58-.72-.53-1.38-1.04-1.47-1.15-.47-.5-3.08-2.42-3.28-2.42-.13,0-.89-.44-1.68-.98-1.42-.98-3.91-2.32-7.34-3.96-.95-.46-2.91-1.19-4.33-1.62-1.42-.44-2.83-1-3.13-1.26-.3-.26-.81-.48-1.12-.48-.78,0-.73-.61,.29-2.89,.47-1.07,1.11-3.26,1.43-4.86,.52-2.68,.52-3.15,.03-5.89-.3-1.63-.96-3.86-1.47-4.95-.98-2.09-4.04-6.35-5.41-7.52-1.9-1.63-3.7-2.95-4.03-2.95-.2,0-.4-.12-.47-.27-.16-.36-5.16-2.41-7.9-3.22-3.21-.94-12.16-.93-16.1,.03-6.57,1.59-11.57,4.69-15.85,9.81-2.31,2.75-4.57,9.55-4.29,12.85,.23,2.88,.95,5.8,1.85,7.6,1.3,2.59,1.13,2.87-2.65,4.42-3.62,1.49-12.29,5.71-12.92,6.31-.22,.21-1.6,1.29-3.08,2.41-1.49,1.12-2.68,2.16-2.68,2.33,0,.16-.18,.3-.39,.3-.79,0-6.62,6.44-9.58,10.61-3.51,4.95-6.76,11.87-8.5,18.1-.66,2.37-2.22,10.88-2.24,12.28-.01,.57-.09,2.29-.17,3.82-.27,4.78,.42,11.64,1.73,16.94,1.77,7.18,2.59,9.71,3.69,11.31,.72,1.06,.65,1.41-.83,4.65-1.46,3.21-3.38,10.91-3.6,14.49-.1,1.71-.3,3.88-.43,4.84-.31,2.36-.31,4.78,0,9.68,.29,4.57,1.55,12.97,2.02,13.48,.17,.18,.3,.7,.3,1.15s.22,1.24,.5,1.76c.27,.52,.83,1.99,1.24,3.27,.42,1.28,.94,2.44,1.16,2.58,.46,.3,2.31,2.95,2.31,3.31,0,.43,4.76,6.22,8.84,10.74,.2,.22,1.26,1.41,2.37,2.65,1.11,1.24,4.72,4.99,8.02,8.33,4.9,4.97,6.19,6.48,6.93,8.13,1.06,2.36,1.34,5.64,.78,8.97-.38,2.18-3.15,10.63-4.39,13.32-.98,2.15-4.56,13.19-4.56,14.08,0,1.06,1.3,2.53,2.25,2.53,1.54,0,2.62-1.38,3.52-4.5,.46-1.6,1.06-3.39,1.32-3.96,.57-1.25,1.9-5.34,1.9-5.84,0-.2,.3-.99,.66-1.76,1.36-2.85,4.6-13.12,4.78-15.11,.38-4.13-1.23-9.8-3.69-13.02-.4-.53-3.35-3.61-6.54-6.84-5.49-5.57-9.38-9.79-11.17-12.11-.44-.57-1.32-1.59-1.94-2.25-.61-.66-1.12-1.32-1.13-1.43,0-.13-.52-.74-1.15-1.38-.64-.64-1.6-1.86-2.15-2.72-.55-.85-1.26-1.88-1.6-2.25-.89-1.02-2.85-5.2-3.49-7.43-1.49-5.15-2.14-11.34-2.1-19.89,.05-12.29,1.71-19.74,5.37-24.19,1.13-1.38,2.85-2.33,3.65-2.03,.74,.29,1.41,2.28,1.42,4.26,.01,.99-.38,3.7-.86,6-.77,3.65-.86,4.7-.66,8.07,.12,2.12,.44,4.93,.73,6.22,.27,1.3,.66,3.44,.86,4.76,.2,1.32,.68,3.47,1.07,4.77,.4,1.32,.65,2.79,.56,3.28-.18,.95,.85,5.07,1.46,5.8,.2,.23,.56,.96,.79,1.62,1.38,3.78,8.41,13.22,10.78,14.48,.83,.44,1.07,.44,1.88-.01,.72-.4,.94-.82,1.02-1.89,.09-1.15-.1-1.63-1.21-2.98-4.67-5.76-5.54-7.06-8.24-12.36-1.36-2.66-1.63-4.48-.89-5.86,1.07-2.01,4.14-.01,8.18,5.3,.73,.95,1.49,1.9,1.68,2.11,.21,.21,.91,1.07,1.58,1.9,3.11,3.94,7.75,7.75,11.95,9.83,1.32,.65,5.36,4.48,5.36,5.07,0,.17,.47,.93,1.03,1.71,.9,1.25,2.68,6.19,3.81,10.6,.21,.81,.36,2.91,.34,4.67-.03,1.77-.12,11.39-.2,21.37-.09,10-.2,20.19-.25,22.66-.1,5.03,.29,6.22,2.11,6.5h0c.52,.08,1.06,.16,1.2,.18,.14,.04,.55-.23,.9-.57,.47-.47,.72-1.49,.94-3.73,.3-3.19,.31-3.96,.23-17.44-.07-12.89,.25-28.15,.61-28.5,.2-.21,1.07-.16,2.32,.14,2.71,.63,10.45,.51,12.62-.21,1.94-.64,2.48-1.21,2.48-2.63,0-1.68-.87-2.11-3.74-1.82-4.46,.44-8.37,.25-11.1-.56-1.41-.43-2.7-.94-2.87-1.15s-.95-2.28-1.72-4.6c-1.51-4.54-3.81-8.94-6.06-11.65-1.36-1.64-6.16-5.08-7.77-5.58-1.07-.31-5.28-3.86-6.71-5.64-2.78-3.45-5.49-6.56-8.09-9.27-3.41-3.53-5.73-4.76-8.73-4.57l-1.9,.1-.81-2.95c-.46-1.62-.89-3.71-.98-4.67-.23-2.55-.25-9.27-.03-9.87,.12-.27,.4-2.18,.65-4.2,.55-4.57,.22-9.63-.69-10.91-1.93-2.68-2.15-3.79-1.45-7.53,.7-3.7,3.36-11.59,4.5-13.33,.31-.48,1.2-1.95,1.97-3.3,2.46-4.25,8.11-9.75,12.98-12.64,6.24-3.69,12.66-6.19,17.7-6.91,1.52-.21,3.53-.61,4.46-.87,2.48-.72,13.27-1.06,17.61-.55,4.7,.55,10.45,1.63,14.22,2.7,8.93,2.54,16.8,7.59,21.5,13.79,1.73,2.31,4.67,6.76,4.67,7.12,0,.18,.33,.98,.72,1.76,1.23,2.4,2.72,7.49,3.51,11.96,.35,2.03,.31,2.33-.57,4.59-.78,2.02-.95,2.95-.95,5.62,0,1.79,.25,4.2,.56,5.45,1.73,6.99,1.94,9.57,1.07,13.67-.27,1.33-.51,3.09-.52,3.9,0,.82-.22,2.02-.51,2.68-.48,1.16-.56,1.2-2.37,1.2-2.09,0-3.91,.64-5.68,1.99-1.16,.89-4.61,5.1-8.56,10.47-2.71,3.68-6.27,7.02-9.7,9.12-5.34,3.27-8.45,7.66-10.71,15.21-1.73,5.73-2.15,11.79-1.24,18.04,.27,1.9,.85,16.28,.78,19.73-.01,.38,.13,1.93,.3,3.45,.17,1.52,.4,5.8,.53,9.51,.12,3.71,.27,6.99,.33,7.27,.05,.29,.12,1.17,.13,1.98,.03,1.12,.21,1.58,.81,1.95,1.54,.96,2.2,.96,3.32,.03l1.07-.9-.16-3.87c-.09-2.12-.23-4.72-.33-5.77-.09-1.04-.25-4.16-.35-6.92-.09-2.75-.26-6.02-.35-7.26-.09-1.24-.26-4.43-.36-7.09-.34-8.24-.5-11.04-.69-11.94-.38-1.77-.27-10.95,.14-12.98,.87-4.24,2.55-8.93,3.9-10.9,2.02-2.93,3.3-4.12,6.87-6.39,3.32-2.1,6.56-5,8.65-7.79,4.25-5.63,8.73-11,9.62-11.51,1.77-1.03,2.82-.27,2.83,2.03,.01,3.09-4.95,12.42-8.85,16.63-.39,.42-.91,1.43-1.16,2.24-.42,1.42-.4,1.5,.48,2.27,.51,.43,1.25,.78,1.66,.78,1.04,0,2.78-1.26,3.74-2.74,.44-.68,1.33-1.89,1.95-2.68s1.15-1.55,1.15-1.69,.23-.53,.55-.87c.74-.82,1.59-2.33,3.39-6.03,1.81-3.71,2.58-6.26,2.61-8.71,0-.99,.31-3.4,.68-5.36,1.08-5.7,1.42-8.84,1.43-12.9,.01-4.12-.23-5.9-1.36-9.77-.78-2.67-.96-6.69-.39-8.2,.89-2.33,4.67,.14,6.69,4.39,1.89,4.01,3.95,11.96,4.21,16.34,.21,3.36,.21,11,0,13.49-.73,8.9-1.59,12.63-3.73,16.2-.79,1.34-1.68,2.84-1.97,3.32-.29,.5-1.46,2.2-2.59,3.79-1.15,1.59-2.32,3.23-2.61,3.65-.47,.68-1.81,2.32-5.66,6.93-4.03,4.82-6.14,7.21-8.86,10.05-1.66,1.71-3.48,3.96-4.08,5.02-1.54,2.74-2.5,6.63-2.36,9.54,.17,3.28,.76,6.62,1.33,7.52,.26,.42,1.07,2.31,1.8,4.21,.73,1.9,1.98,5.17,2.8,7.27,.81,2.09,1.88,4.89,2.39,6.22,2.39,6.33,3.96,8.52,5.73,7.96,2.78-.89,2.42-2.91-2.42-14.36-.36-.85-1.15-2.96-1.75-4.67s-1.37-3.74-1.71-4.5c-3-6.66-3.39-8.59-2.58-12.52,.52-2.52,1.71-5.1,2.91-6.35,6.4-6.65,18.69-21.18,18.69-22.09,0-.2,.2-.47,.44-.63,.5-.33,3.36-4.41,3.36-4.8,0-.16,.23-.52,.51-.83,.86-.94,2.59-4.43,3.69-7.39,1.69-4.57,2.12-11.16,1.58-24.1ZM45.58,22.04c.14-2.7,.34-3.53,1.43-5.84,2.33-4.99,7.45-9.03,13.71-10.83,1.79-.51,3.39-.64,7.78-.64,5.29,.01,5.68,.05,8.65,1.08,4.68,1.62,6.07,2.46,8.9,5.45,1.86,1.95,2.48,2.87,4.16,6.13,.94,1.85,1.15,5.85,.43,8.6-.65,2.49-1.99,5.02-2.84,5.34-.6,.22-.96,.2-7.44-.69-3.11-.42-5.77-.51-11.42-.36-8.52,.21-9.77,.31-13.76,1.02-3.96,.7-5.62,.89-6.15,.69-.73-.29-2.36-2.96-3.01-4.93-.47-1.43-.57-2.58-.44-5.02ZM120.09,90.26c-.22,.22-.6-.21-2.25-2.5-1.32-1.85-10.15-9.87-10.87-9.87-.09,0-.99-.55-2.01-1.21-1.02-.66-2.02-1.21-2.25-1.21-.22,0-.46-.12-.52-.27-.3-.7-9.62-3.96-12.98-4.55-.91-.16-2.91-.52-4.43-.82-4.6-.89-8.67-1.11-16.11-.89-9.71,.29-11.42,.55-20.4,3.06-8.26,2.31-15.51,6.53-21.65,12.63-1.93,1.9-4.69,5.1-6.15,7.08-1.45,1.98-2.65,3.39-2.65,3.13,0-.82,1.08-4.97,1.59-6.1,.26-.6,.48-1.3,.48-1.56,0-.78,3.98-8.61,5.42-10.66,1.81-2.59,8.47-9.2,11.01-10.92,2.23-1.51,4.89-2.96,8.48-4.59,2.37-1.08,3.48-1.45,7.49-2.48,1.37-.34,2.63-.72,2.82-.83,.18-.1,1.94-.43,3.91-.69,18.29-2.53,35.03,1.06,46.35,9.89,2.91,2.27,7.59,6.99,7.59,7.64,0,.18,.47,.86,1.04,1.51,.57,.65,1.04,1.39,1.04,1.66,0,.27,.13,.53,.3,.6,.35,.13,2.11,3.56,2.11,4.12,0,.21,.29,.79,.64,1.3,.73,1.07,2.31,6.23,1.99,6.54Zm11.99,19.16c-.77,2.32-1.08,2.89-1.63,2.89-.87,0-1.06-.91-1.54-7.61-.21-2.85-.76-6.97-1.23-9.16-.46-2.19-1.02-4.84-1.24-5.88-.21-1.06-.69-2.57-1.06-3.38-.36-.81-.66-1.56-.66-1.68,0-.56-3.47-7.62-4.63-9.42-3.17-4.9-6.73-8.88-11.82-13.2-1.32-1.12-4.44-3.11-4.89-3.11-.18,0-.64-.27-1-.61-.74-.66-4.44-2.5-5.04-2.5-.21,0-1.26-.36-2.33-.82-3.71-1.58-10.35-3.13-15.26-3.58-5.29-.48-15.68-.22-21.28,.52-4.98,.68-6.67,1.08-12.8,3.08-2.44,.8-9.91,4.39-11.01,5.32-.22,.18-1.81,1.37-3.52,2.63-8.95,6.61-15.5,16.96-18.45,29.18-1.47,6.07-1.85,9.59-1.8,17.02,.03,3.83-.09,6.54-.3,6.66-.33,.21-1.42-1.06-1.42-1.64,0-.17-.22-.79-.5-1.39-.72-1.6-2.19-7.83-2.79-11.89-.6-3.99-.51-14.05,.17-17.58,.74-3.95,2.15-9.34,2.63-10.1,.27-.42,.48-1,.48-1.3,0-.76,2.84-6.46,4.82-9.7,2.36-3.86,5.88-7.98,9.68-11.33,1.77-1.58,3.47-3.01,3.77-3.21,.29-.18,1.51-1,2.72-1.81,1.21-.81,2.28-1.47,2.4-1.47s.61-.27,1.12-.63c.51-.34,1.85-.98,3-1.43,1.13-.46,2.85-1.17,3.81-1.59,5.3-2.37,12.86-4.04,22.51-4.98,4.76-.47,15.99-.09,20.14,.68,.99,.18,2.71,.51,3.81,.7,2.01,.38,5.14,1.24,8.9,2.46,1.94,.64,8.39,3.68,10.73,5.06,3.14,1.85,7.13,4.87,9.83,7.45,1.99,1.9,6.61,7.25,6.61,7.65,0,.13,.39,.74,.86,1.37,.48,.63,.87,1.29,.87,1.5,0,.2,.25,.56,.55,.81,.74,.61,4.33,8.04,5.66,11.73,.59,1.6,1.32,4.24,1.62,5.85,.3,1.62,.69,3.31,.86,3.77,.31,.81,.65,5.21,.79,10.19,.1,3.52-1,11.05-2.12,14.49Z"/>
    <path class="cls-1" d="M71.1,182.71c-2.6-.35-4.83-1.39-6.12-2.87-1.34-1.53-1.6-2.31-1.16-3.47,.58-1.52,1.89-1.56,4.5-.14,3.96,2.16,5.69,2.08,8.8-.4,1.55-1.24,2.54-1.34,3.74-.4,1.63,1.28,.58,3.47-2.83,5.9-.75,.53-2.54,1.14-4.5,1.53-.29,.06-1.38-.01-2.42-.15Z"/>
    <path class="cls-1" d="M59.51,177.28c-.38-.09-.87-.31-1.08-.49-.64-.52-.85-2.36-.37-3.28,.57-1.09,3.54-3.23,6.7-4.83,2.71-1.37,3.25-1.37,6.98,0,1.48,.55,1.53,.54,3.09-.37,2.04-1.2,3.8-1.18,6.3,.07,1.05,.52,1.98,1.04,2.08,1.16,.1,.11,.8,.67,1.56,1.24,2.46,1.83,2.59,2,2.59,3.35,0,1.66-1.09,2.79-2.39,2.47-.49-.12-2.05-1.07-3.45-2.13-2.98-2.23-3.86-2.36-5.96-.9-1.18,.82-1.79,1-3.18,.95-1.14-.04-1.83-.23-2.02-.58-.16-.29-.83-.7-1.48-.92-1.01-.33-1.39-.29-2.57,.32-.76,.39-1.47,.85-1.58,1.03-.2,.33-4.26,3.18-4.43,3.11-.05-.02-.4-.12-.78-.21h0Z"/>
    <path class="cls-1" d="M68.62,158.15c-1.08-.17-2.56-.59-3.29-.93-1.18-.55-1.34-.78-1.43-2.02-.15-2.02,.72-2.41,4.5-2.07,3.9,.36,4.22,.35,7.2-.17,3.6-.62,4.62-.27,4.77,1.64,.09,1.22-.03,1.5-.9,2.12-1.8,1.28-7.21,1.99-10.85,1.43h0Z"/>
    <path class="cls-1" d="M27.86,137.33c-1.44-.98-1.71-2.22-.76-3.4,.55-.68,1.06-.84,2.96-.96,1.62-.1,2.3-.28,2.3-.61,0-.26-.7-1.26-1.56-2.22-.86-.96-1.56-1.96-1.56-2.22s.44-.94,.97-1.51c1.38-1.47,2.5-1.18,5.04,1.35,1.35,1.34,2.97,2.48,4.83,3.4,2.56,1.26,2.99,1.37,5.11,1.26,3.08-.15,5.09-1.18,8.05-4.11,1.31-1.29,2.73-2.59,3.16-2.87,1.6-1.05,3.78,.42,3.41,2.29-.16,.81-3.81,4.94-5.53,6.26-1.49,1.15-3.84,2.37-4.55,2.37-.4,0-.82,.16-.94,.35-.33,.53-6.01,.4-7.93-.18-2.34-.71-3.2-.65-5.39,.39-1.2,.57-2.74,.96-4.15,1.07-1.96,.15-2.41,.06-3.46-.66h0Z"/>
    <path class="cls-1" d="M109.45,135.84c-1.01-.21-2.36-.65-2.99-.99-1.11-.59-1.23-.58-3.36,.11-1.67,.54-3.12,.71-5.94,.72h-3.73s-3.29-1.63-3.29-1.63c-3.29-1.63-6.1-4.02-7.63-6.47-.56-.89-.58-1.11-.15-1.95,.96-1.86,2.45-1.83,4.54,.1,.88,.81,2.1,1.78,2.72,2.16s1.74,1.12,2.48,1.64c1.72,1.21,4.98,2.08,6.64,1.78,2.3-.42,4.69-1.9,7.48-4.65,2.14-2.11,3.02-2.74,3.86-2.81,2.39-.18,2.87,1.83,1.12,4.67-1.01,1.65-1.04,1.77-.45,2.2,.34,.25,1.41,.45,2.38,.45,2.27,0,3.3,.69,3.3,2.21,0,.71-.27,1.38-.71,1.78-.93,.84-3.91,1.16-6.27,.67Z"/>
    <path class="cls-1" d="M24.4,118.02c-.83-.83-.85-1.12-.16-2.57,.39-.83,1.17-1.44,3.03-2.39,7.68-3.91,12.69-4.39,25.16-2.41,1.81,.29,4.45,.65,5.88,.81,2.02,.23,2.73,.45,3.2,1.04,.81,1,.77,2.45-.1,3.38-.84,.9-1.13,.91-4.41,.23-1.38-.29-3.33-.54-4.32-.55-.99-.02-2.69-.23-3.78-.48s-2.05-.37-2.14-.27-1.82-.03-3.83-.27c-3.3-.4-3.9-.39-6.16,.17-1.38,.34-3.21,.94-4.06,1.32s-2.15,.91-2.87,1.16-1.65,.7-2.07,.99c-1.05,.73-2.55,.66-3.37-.16h0Z"/>
    <path class="cls-1" d="M115.22,116.28c-.76-.13-2.53-.73-3.94-1.32-1.4-.6-3.75-1.33-5.21-1.62-3.05-.62-5.21-.46-15.07,1.09-7.22,1.13-8.95,1.31-10.07,1.03-.78-.2-.86-.37-.77-1.66,.14-1.9,1.1-2.45,5.83-3.36,16.51-3.15,20.64-3.03,28.82,.81,3.11,1.46,3.88,2.24,3.45,3.53-.44,1.33-1.39,1.8-3.04,1.51h0Z"/>
  </g>
</svg>